<?xml version="1.0" standalone="no"?>
<!DOCTYPE svg PUBLIC "-//W3C//DTD SVG 20010904//EN"
 "http://www.w3.org/TR/2001/REC-SVG-20010904/DTD/svg10.dtd">
<svg version="1.0" xmlns="http://www.w3.org/2000/svg"
 width="200.000000pt" height="200.000000pt" viewBox="0 0 200.000000 200.000000"
 preserveAspectRatio="xMidYMid meet">

<g transform="translate(0.000000,200.000000) scale(0.100000,-0.100000)"
fill="#000000" stroke="none">
<path d="M0 1000 l0 -1000 1000 0 1000 0 0 1000 0 1000 -442 -1 c-257 0 -435
-4 -423 -9 11 -5 32 -9 46 -9 37 -1 142 -37 234 -80 221 -104 423 -330 503
-566 39 -116 66 -284 59 -366 -18 -187 -49 -299 -123 -436 -120 -224 -306
-386 -531 -462 -85 -29 -199 -51 -260 -51 l-53 0 0 205 0 205 24 0 c52 0 164
33 231 68 94 49 193 149 239 240 97 194 86 406 -31 584 -50 77 -121 144 -199
188 -65 38 -98 49 -189 64 l-70 12 -3 187 c-2 157 -5 189 -18 194 -25 9 -190
-16 -268 -41 -334 -109 -588 -409 -646 -761 -14 -87 -12 -252 4 -337 24 -122
67 -238 89 -237 7 0 55 52 107 116 52 64 113 137 135 163 49 56 497 598 544
658 19 23 38 42 43 42 4 0 8 -114 8 -252 l0 -253 -38 -46 c-20 -26 -133 -161
-251 -300 -289 -341 -314 -371 -329 -387 -17 -19 -15 -41 4 -49 17 -6 33 8
119 112 28 33 52 62 55 65 3 3 75 88 160 190 85 102 162 193 172 203 9 11 34
41 55 68 21 26 41 48 46 49 4 0 7 -48 7 -107 l0 -108 -58 -66 c-31 -36 -133
-159 -227 -273 -93 -115 -179 -220 -191 -234 -18 -22 -23 -23 -45 -12 -36 19
-108 78 -163 135 -260 267 -353 668 -236 1017 103 307 336 538 639 634 42 13
87 24 101 24 14 0 32 5 40 10 10 6 -138 10 -427 10 l-443 0 0 -1000z"/>
</g>
</svg>
